<svg class="icon icon-user" viewBox="0 0 634 673" version="1.1" xmlns="http://www.w3.org/2000/svg">
<path fill="currentColor" opacity="1.00" d=" M 273.40 5.24 C 287.43 2.12 301.81 1.60 316.09 0.60 C 321.08 0.53 326.01 1.54 331.00 1.54 C 350.22 3.06 369.75 7.99 385.58 19.43 C 390.04 22.49 393.47 26.70 397.37 30.39 C 405.81 31.45 413.89 34.61 421.51 38.29 C 439.15 46.36 453.01 61.19 462.07 78.14 C 470.08 93.91 473.68 111.48 475.43 128.97 C 475.53 132.65 475.37 136.34 475.81 140.00 C 476.62 146.99 475.17 153.96 475.47 160.96 C 473.92 181.58 470.48 202.05 465.34 222.08 C 464.38 226.68 462.59 231.09 461.98 235.77 C 462.59 236.70 463.19 237.64 463.79 238.59 C 464.88 240.17 465.98 241.76 467.14 243.31 C 470.68 251.37 472.93 260.16 472.47 269.01 C 470.95 284.07 467.78 299.44 459.49 312.34 C 454.92 318.62 449.45 324.45 442.54 328.15 C 439.33 347.73 431.08 366.11 421.56 383.37 C 417.63 388.73 414.77 395.04 409.52 399.31 C 407.63 403.62 408.72 408.42 408.47 412.96 C 408.71 424.64 407.78 436.38 409.33 448.00 C 409.81 452.01 408.57 456.42 410.85 460.05 C 417.65 472.99 430.52 481.20 443.13 487.72 C 445.22 489.03 447.35 490.31 449.69 491.13 C 480.17 505.59 512.73 515.36 542.74 530.90 C 561.94 540.85 580.25 552.99 595.45 568.45 C 603.61 577.99 611.98 587.65 617.08 599.26 C 626.96 617.20 631.16 637.72 632.49 657.99 C 632.32 663.01 632.60 668.04 633.44 673.00 L 0.54 673.00 C 0.11 665.61 1.52 658.32 1.65 650.96 C 2.67 642.37 4.04 633.79 6.31 625.44 C 12.30 602.46 25.20 581.60 42.02 564.98 C 57.63 550.16 76.00 538.52 95.22 528.94 C 119.45 517.17 144.89 508.16 169.77 497.87 C 184.72 491.48 199.80 484.62 212.35 474.10 C 217.02 470.95 219.76 465.86 223.35 461.66 C 226.36 456.26 225.28 450.00 225.73 444.11 C 227.18 429.97 226.31 415.73 226.51 401.54 C 211.39 384.79 201.48 364.04 194.79 342.64 C 193.56 337.85 192.00 333.10 191.46 328.17 C 179.72 321.63 171.60 310.02 167.30 297.48 C 164.13 287.96 162.31 278.02 161.48 268.04 C 161.35 256.32 164.64 244.19 172.63 235.36 C 167.99 214.52 163.80 193.51 162.34 172.18 C 160.73 161.18 161.90 150.03 161.49 138.96 C 163.02 110.82 169.61 81.94 186.12 58.61 C 191.61 49.82 199.23 42.73 206.56 35.50 C 225.56 19.57 249.14 9.75 273.40 5.24 M 278.87 33.95 C 256.85 38.52 234.76 47.43 219.14 64.13 C 210.72 72.64 204.77 83.36 200.50 94.46 C 198.61 99.12 197.35 103.99 195.97 108.81 C 193.81 118.09 192.64 127.51 191.74 136.96 C 191.77 146.30 191.78 155.64 191.74 164.97 C 191.69 167.15 192.18 169.29 192.55 171.43 C 193.46 187.84 196.71 204.07 199.99 220.20 C 202.30 228.87 203.90 237.77 206.82 246.26 C 201.95 249.78 194.92 251.72 193.15 258.17 C 190.05 265.64 192.87 273.62 193.96 281.19 C 195.94 288.48 198.50 296.26 204.59 301.18 C 208.97 302.02 213.39 302.37 217.85 302.31 C 219.91 304.79 217.99 308.73 219.35 311.69 C 220.12 324.07 223.68 336.12 228.34 347.57 C 232.84 357.94 237.82 368.23 244.79 377.20 C 247.32 381.05 251.96 382.38 255.77 384.58 C 255.82 404.39 255.70 424.23 255.79 444.06 C 255.85 447.75 254.39 451.30 254.77 455.03 C 255.16 463.17 251.99 470.97 247.72 477.75 C 238.49 492.98 223.65 503.68 208.34 512.21 C 170.86 532.32 128.78 542.41 92.05 564.06 C 77.37 572.45 64.04 583.30 53.38 596.47 C 44.00 608.27 37.63 622.25 33.94 636.82 C 33.62 638.82 33.28 640.83 33.01 642.85 C 219.65 642.99 406.30 642.85 592.94 642.93 C 595.30 642.92 597.74 643.14 600.03 642.33 C 599.49 640.86 599.19 639.33 599.02 637.80 C 594.55 617.77 584.08 599.12 569.03 585.14 C 557.37 573.55 543.07 565.10 528.66 557.38 C 506.80 546.39 483.88 537.75 461.20 528.67 C 444.44 521.81 427.66 514.59 412.63 504.38 C 399.05 495.08 386.93 482.70 380.99 467.10 C 378.26 459.34 379.97 451.04 378.36 443.11 C 378.04 423.78 378.37 404.44 378.20 385.11 C 381.76 382.66 386.19 381.34 388.90 377.80 C 394.11 371.31 397.80 363.81 401.44 356.37 C 407.81 342.67 412.61 328.08 414.22 313.01 C 413.95 309.39 415.14 305.93 415.45 302.37 C 420.08 302.47 424.64 301.96 429.19 301.16 C 434.76 296.76 436.93 289.64 439.01 283.15 C 439.17 281.77 439.39 280.39 440.03 279.15 C 441.05 271.67 443.25 263.61 439.82 256.43 C 437.44 251.05 430.97 249.80 427.28 245.72 C 427.77 241.74 429.51 237.94 430.47 234.02 C 433.88 223.56 436.51 212.86 439.01 202.14 C 439.70 198.82 440.07 195.42 441.04 192.16 C 442.23 183.08 444.10 174.08 444.41 164.92 C 445.97 157.39 444.95 149.65 445.23 142.02 C 445.69 131.51 444.06 121.08 442.03 110.79 C 438.02 94.69 430.22 78.36 415.96 68.99 C 408.23 63.72 399.16 61.01 390.15 58.92 C 386.39 59.13 382.88 57.34 379.12 57.77 C 376.00 54.43 374.82 49.74 371.41 46.64 C 364.12 38.67 353.31 35.47 343.16 32.94 C 338.12 32.19 333.08 31.57 328.05 30.78 C 320.04 30.73 312.04 30.77 304.04 30.77 C 295.62 31.74 287.24 32.54 278.87 33.95 Z" />
</svg>