<svg class="icon icon-bag" viewBox="0 0 446 491" version="1.1" xmlns="http://www.w3.org/2000/svg">
<path fill="currentColor" opacity="1.00" d=" M 209.66 0.00 L 236.34 0.00 C 240.96 1.86 246.05 1.82 250.77 3.33 C 256.88 5.27 263.23 6.80 268.66 10.35 C 276.14 14.23 283.35 18.73 289.72 24.28 C 292.40 26.62 295.98 27.88 298.05 30.92 C 301.27 35.35 305.59 39.03 307.79 44.15 C 309.95 49.13 313.56 53.34 315.44 58.46 C 317.26 63.30 319.76 67.88 321.04 72.91 C 323.20 80.10 323.80 87.62 324.73 95.03 C 325.18 103.34 324.42 111.67 325.03 119.97 C 351.21 120.51 377.44 119.89 403.63 120.26 C 412.52 196.94 421.58 273.60 430.48 350.28 C 431.22 359.54 433.43 368.69 432.82 378.03 C 436.18 409.10 440.24 440.08 443.59 471.15 C 444.56 475.96 444.15 481.05 446.00 485.66 L 446.00 491.00 L 0.00 491.00 L 0.00 485.66 C 0.23 484.96 0.70 483.56 0.93 482.86 C 3.23 466.24 4.50 449.49 6.92 432.89 C 8.49 416.65 10.79 400.50 12.52 384.28 C 13.83 377.22 12.49 369.99 14.03 362.96 C 23.43 282.05 32.99 201.17 42.37 120.26 C 68.56 119.90 94.79 120.51 120.97 119.97 C 121.53 111.65 120.92 103.30 121.20 94.97 C 122.31 83.73 123.83 72.21 129.12 62.05 C 131.29 55.09 135.92 49.37 138.89 42.78 C 141.30 38.11 145.35 34.60 148.41 30.38 C 150.76 26.93 155.04 25.81 157.92 22.92 C 164.01 17.34 171.46 13.62 178.61 9.62 C 183.45 6.59 189.08 5.33 194.44 3.55 C 199.41 1.89 204.77 1.91 209.66 0.00 M 214.00 22.91 C 201.93 24.45 189.96 28.71 180.34 36.30 C 176.11 39.44 170.98 41.38 167.65 45.63 C 162.66 51.75 157.18 57.69 153.87 64.94 C 149.12 73.95 145.71 83.80 144.79 93.97 C 144.97 102.65 144.59 111.34 145.00 120.01 C 165.65 120.39 186.33 120.05 207.00 120.17 C 238.33 120.06 269.68 120.38 301.01 120.01 C 301.42 112.35 301.01 104.67 301.20 97.00 C 301.46 88.43 298.58 80.28 295.72 72.34 C 292.04 63.86 287.18 55.91 281.12 48.92 C 276.79 42.38 269.36 39.29 263.37 34.61 C 258.38 30.80 252.50 28.40 246.67 26.21 C 239.04 23.46 230.93 22.94 223.00 21.72 C 219.97 21.90 217.06 22.98 214.00 22.91 M 62.98 141.98 C 62.48 154.72 60.24 167.32 58.84 179.99 C 58.86 184.37 57.23 188.58 57.81 193.00 C 58.61 200.78 55.93 208.29 55.78 216.01 C 49.36 270.00 43.13 323.99 36.77 378.00 C 34.96 390.70 34.28 403.50 32.12 416.18 C 30.41 434.14 28.10 452.07 25.89 469.99 C 51.58 470.41 77.30 470.05 103.00 470.17 C 165.33 470.17 227.67 470.17 290.00 470.17 C 333.37 470.04 376.76 470.42 420.12 469.99 C 418.68 459.69 417.76 449.31 416.22 439.02 C 415.03 423.97 412.55 409.02 411.15 393.99 C 405.06 342.66 399.07 291.34 393.09 239.99 C 391.23 226.99 390.56 213.89 388.26 200.93 C 387.71 195.22 388.97 189.37 387.41 183.76 C 386.37 169.79 383.50 155.99 383.02 141.98 C 363.69 141.73 344.33 141.72 325.00 141.99 C 324.67 148.32 324.81 154.67 324.88 161.01 C 324.75 163.30 327.46 163.83 328.72 165.29 C 334.88 170.73 335.94 179.74 334.32 187.39 C 332.45 194.61 326.20 200.30 318.97 201.81 C 314.15 201.70 309.22 202.27 304.46 201.51 C 301.04 199.05 296.71 197.28 294.75 193.31 C 292.12 188.53 290.26 182.88 291.50 177.40 C 292.63 171.60 295.65 165.75 300.95 162.78 C 301.39 155.87 301.23 148.91 301.01 142.00 C 275.68 141.60 250.33 141.95 225.00 141.83 C 198.33 141.95 171.65 141.62 145.00 141.99 C 144.76 148.90 144.62 155.87 145.04 162.77 C 149.87 165.45 152.80 170.59 154.15 175.80 C 156.17 182.66 153.69 190.04 149.69 195.69 C 147.29 198.01 144.30 199.65 141.54 201.52 C 137.42 202.29 133.15 201.63 128.97 201.87 C 125.44 202.21 122.37 200.17 119.46 198.49 C 107.53 190.42 108.18 169.79 120.76 162.61 C 121.65 155.85 121.10 148.84 121.01 142.00 C 101.68 141.71 82.31 141.74 62.98 141.98 Z" />
</svg>